<svg version="1.1" id="Layer_1" xmlns="http://www.w3.org/2000/svg" xmlns:xlink="http://www.w3.org/1999/xlink" x="0px" y="0px"
	 width="105px" height="105px" viewBox="0 0 225 225" enable-background="new 0 0 225 225" xml:space="preserve">
<g>
	<path class="fade-in two" fill="#FFFFFF" d="M101.569,120.508c-0.274,0.168-0.553,0.328-0.832,0.486L96.12,132.07l7.285,15.467l28.207-28.21h-8.215
		l11.66-33.065l7.723,21.898l15.066-15.066l-17.9-45.137l-12.859,9.814l-10.314,25.909c0.266,1.878,0.373,6.412,0.146,8.656
		C116.297,105.974,109.691,114.711,101.569,120.508z"/>
	<polygon class="changeOrange fade-in one" fill="#FFFFFF" points="83.652,170.508 101.314,171.488 92.238,162.412 	"/>
	<polygon class="fade-in two" fill="#FFFFFF" points="108.5,160.471 104.401,170.018 102.725,170.018 93.646,160.945 103.895,150.695 	"/>
	<polygon class="fade-in two" fill="#FFFFFF" points="84.745,155.963 90.217,161.434 81.143,170.508 78.679,170.508 	"/>
	<polygon class="fade-in two" fill="#FFFFFF" points="101.568,149.164 94.283,133.701 85.846,153.939 91.319,159.412 	"/>
	<polygon class="changeOrange fade-in" fill="#FFFFFF" points="159.314,94.294 144.25,109.358 148.189,120.527 133.082,120.527 104.875,148.734 109.48,158.51 
		117.484,140.355 156.309,140.355 167.969,168.059 190.26,168.059 	"/>
	<path class="fade-in three" fill="#FFFFFF" d="M90.863,125.238c-4.692,0.971-10.729,1.342-19.4,1.342h-6.497v20.686l-20.224,20.793V58.971H59.65
		l8.074,17.143l-2.759,0.328v30.802h5.904c4.453,0,8.113-0.295,11.106-0.877L90.863,125.238z"/>
	<path class="changeBlue podeanuPart fade-in" fill="#FFFFFF" d="M114.908,88.709c0,12.548-5.461,23.62-14.32,29.078c-0.274,0.171-0.554,0.327-0.833,0.484
		c-2.436,1.372-5.08,2.363-8.402,3.047l-8.887-18.871c9.205-1.794,12.071-6.315,12.071-13.444c0-11.514-6.79-14.614-22.291-14.614
		h-2.999L60.14,55.051h12.106c14.467,0,21.698,1.328,27.901,5.022c7.936,4.835,12.958,12.909,14.358,22.815
		C114.771,84.766,114.908,86.71,114.908,88.709z"/>
</g>
</svg>
