<?xml version="1.0" encoding="UTF-8" standalone="no"?>
<svg width="193px" height="70px" viewBox="0 0 193 70" version="1.1" xmlns="http://www.w3.org/2000/svg" xmlns:xlink="http://www.w3.org/1999/xlink">
    <!-- Generator: Sketch 3.6.1 (26313) - http://www.bohemiancoding.com/sketch -->
    <title>logo</title>
    <desc>Created with Sketch.</desc>
    <defs></defs>
    <g id="Page-1" stroke="none" stroke-width="1" fill="none" fill-rule="evenodd">
        <g id="Home-page" transform="translate(-83.000000, -86.000000)">
            <g id="Header" transform="translate(-96.000000, -73.000000)">
                <g id="logo" transform="translate(179.000000, 159.000000)">
                    <g id="Layer_1">
                        <rect id="Rectangle-path" fill="#FFFFFF" x="17.0623188" y="17.64" width="52.3990338" height="51.8"></rect>
                        <path d="M69.4613527,31.1733333 L69.4613527,40.6933333 C69.4613527,40.9733333 61.9091787,42.84 60.7903382,43.12 C60.510628,42.7466667 63.8671498,38.36 64.1468599,38.08 C65.7318841,35.7466667 67.5033816,33.04 69.4613527,31.1733333 L69.4613527,31.1733333 Z M69.4613527,42.7466667 L69.4613527,61.04 C67.5033816,60.2 65.5454106,59.5466667 64.0536232,58.1466667 C61.5362319,55.8133333 59.7647343,53.5733333 59.7647343,53.5733333 C59.5782609,52.5466667 59.7647343,45.36 59.7647343,45.1733333 L69.4613527,42.7466667 Z M69.4613527,65.52 C69.2748792,65.8 67.6898551,64.12 67.2236715,63.7466667 C66.1048309,62.6266667 64.9859903,61.4133333 63.8671498,60.2933333 C64.0536232,60.3866667 64.5198068,60.6666667 64.8927536,60.9466667 C66.1980676,62.2533333 68.0628019,64.12 69.4613527,65.52 L69.4613527,65.52 Z M69.4613527,69.5333333 C68.3425121,69.5333333 68.0628019,69.6266667 67.4101449,68.7866667 C66.8507246,67.8533333 62.0956522,60.3866667 61.5362319,59.5466667 C62.5618357,59.8266667 62.9347826,60.0133333 62.9347826,60.0133333 C67.7830918,65.0533333 69.4613527,66.2666667 69.4613527,66.7333333 L69.4613527,69.5333333 L69.4613527,69.5333333 Z M65.8251208,69.5333333 L63.4942029,69.5333333 C63.4942029,69.5333333 61.3497585,62.5333333 61.3497585,62.44 C61.3497585,62.8133333 65.6386473,69.16 65.8251208,69.5333333 L65.8251208,69.5333333 Z M61.9091787,69.5333333 L59.6714976,69.5333333 C59.1120773,68.6933333 54.1705314,60.8533333 53.984058,60.48 C55.0096618,60.48 57.6202899,60.9466667 59.3917874,59.7333333 C59.3917874,60.2 61.815942,69.0666667 61.9091787,69.5333333 L61.9091787,69.5333333 Z M58.0864734,69.5333333 C56.3149758,69.5333333 56.2217391,68.5066667 55.1961353,67.2933333 C55.0096618,66.92 54.1705314,65.8933333 53.0516908,64.4 C52.3990338,63.1866667 52.2125604,61.5066667 52.1193237,60.0133333 C52.678744,59.92 57.7135266,69.2533333 58.0864734,69.5333333 L58.0864734,69.5333333 Z M53.8908213,69.5333333 L53.2381643,69.5333333 C53.2381643,69.5333333 53.1449275,68.88 53.0516908,67.6666667 C53.2381643,67.9466667 54.3570048,69.2533333 54.636715,69.5333333 L53.8908213,69.5333333 Z M50.6275362,69.5333333 L46.7115942,69.5333333 C46.7115942,69.5333333 46.6183575,63.0933333 46.6183575,60.76 C46.7115942,60.8533333 47.7371981,62.8133333 47.7371981,63.4666667 C47.9236715,65.24 49.7884058,66.8266667 49.9748792,67.0133333 C50.1613527,67.2 50.3478261,67.76 50.6275362,69.5333333 L50.6275362,69.5333333 Z M45.2198068,69.5333333 L42.9821256,69.5333333 C43.4483092,67.6666667 43.7280193,66.1733333 45.2198068,64.96 C45.12657,64.96 45.2198068,68.88 45.2198068,69.5333333 L45.2198068,69.5333333 Z M38.9729469,69.5333333 L32.6328502,69.5333333 C33.2855072,68.9733333 39.7188406,63.3733333 39.905314,63.0933333 C40.1850242,64.7733333 39.4391304,68.04 38.9729469,69.5333333 L38.9729469,69.5333333 Z M28.5304348,69.5333333 L28.1574879,69.5333333 C28.8101449,68.7866667 29.4628019,68.1333333 30.2086957,67.3866667 C29.7425121,68.1333333 29.0898551,68.7866667 28.5304348,69.5333333 L28.5304348,69.5333333 Z M17.0623188,17.64 L69.4613527,17.64 L69.4613527,25.2933333 C69.3681159,25.2933333 68.8086957,25.9466667 67.6898551,26.88 C67.6898551,26.88 65.3589372,27.3466667 63.773913,28.28 C60.7903382,30.1466667 59.857971,31.4533333 58.9256039,32.5733333 C56.9676329,34.9066667 55.1961353,37.1466667 53.4246377,39.2933333 C53.4246377,39.2 60.2309179,13.44 60.6971014,11.3866667 C61.3497585,8.77333333 61.5362319,8.21333333 62.2821256,4.01333333 C62.5618357,2.33333333 62.0024155,0.653333333 61.0700483,0.84 C59.205314,1.58666667 57.8067633,7.65333333 56.7811594,11.0133333 C55.8487923,14.3733333 55.0096618,17.5466667 54.0772947,21 C53.6111111,22.8666667 48.8560386,38.1733333 48.1101449,40.1333333 C48.3898551,37.8933333 48.7628019,35.84 48.1101449,34.72 C46.6183575,34.3466667 44.3806763,38.4533333 43.821256,39.5733333 C43.2618357,37.3333333 41.1173913,30.52 41.210628,30.8 C41.210628,30.7066667 39.5323671,24.1733333 38.6932367,21.7466667 C37.7608696,19.04 35.0570048,10.1733333 34.9637681,9.98666667 C34.5908213,8.96 33.4719807,4.2 31.8869565,4.38666667 C30.9545894,4.57333333 30.5816425,6.06666667 31.7937198,11.76 C32.2599034,14.28 34.9637681,24.4533333 35.8961353,27.2533333 C37.294686,31.5466667 41.4903382,42.9333333 41.5835749,43.2133333 C41.5835749,43.2133333 40.8376812,44.6133333 40.8376812,44.52 C40.6512077,43.96 32.9125604,30.1466667 32.5396135,29.3066667 C31.6072464,27.6266667 29.8357488,22.8666667 29.0898551,21.3733333 C28.4371981,20.5333333 27.0386473,17.7333333 26.1062802,17.64 C24.3347826,17.5466667 25.4536232,21.84 25.5468599,22.3066667 C26.1062802,24.5466667 34.684058,42.6533333 34.684058,43.68 C34.684058,43.7733333 10.9086957,24.64 11.0019324,24.64 C10.5357488,24.36 6.34009662,20.6266667 6.52657005,20.72 C5.68743961,20.0666667 3.17004831,18.6666667 2.5173913,18.6666667 C0.37294686,18.2933333 0.652657005,20.9066667 1.77149758,22.4 C2.61062802,23.4266667 9.9763285,28.4666667 11.8410628,29.68 C13.0531401,30.4266667 32.5396135,45.5466667 35.7096618,48.6266667 C34.9637681,49 17.5285024,52.4533333 15.6637681,52.4533333 L13.6125604,52.4533333 C12.4937198,52.36 12.4004831,54.1333333 13.426087,54.1333333 L16.5028986,54.1333333 C17.1555556,54.1333333 23.215942,55.0666667 23.9618357,55.16 C25.3603865,55.3466667 32.5396135,56.6533333 33.4719807,56.7466667 C33.378744,56.56 25.7333333,69.5333333 23.868599,69.5333333 L17.0623188,69.5333333 L17.0623188,54.2266667 C17.0623188,42 17.0623188,29.7733333 17.0623188,17.64 L17.0623188,17.64 Z M60.6038647,3.92 C61.5362319,2.70666667 60.2309179,7.37333333 59.857971,8.58666667 C59.5782609,9.70666667 57.1541063,17.64 55.942029,20.0666667 C56.3149758,17.8266667 58.552657,10.08 58.9256039,8.86666667 C59.4850242,6.81333333 60.6038647,3.92 60.6038647,3.92 L60.6038647,3.92 Z M32.2599034,8.96 C31.6072464,6.06666667 32.1666667,6.25333333 32.1666667,6.25333333 C33.378744,6.16 41.4903382,36.4933333 42.0497585,40.04 C41.7700483,39.76 38.0405797,29.4 36.2690821,24.1733333 C35.8028986,22.96 33.2855072,13.6266667 32.2599034,8.96 L32.2599034,8.96 Z M2.61062802,20.3466667 C4.75507246,20.6266667 8.85748792,25.1066667 9.04396135,25.0133333 C8.85748792,24.92 14.9178744,29.68 17.0623188,31.36 L17.0623188,31.5466667 C17.0623188,31.4533333 10.0695652,26.6933333 6.52657005,24.2666667 C3.7294686,22.2133333 2.89033816,21.56 2.61062802,20.3466667 L2.61062802,20.3466667 Z M26.3859903,20.3466667 C26.3859903,20.2533333 26.3859903,20.16 26.4792271,20.16 C26.6657005,20.16 27.0386473,20.5333333 27.3183575,21.1866667 C28.5304348,23.6133333 31.2342995,30.0533333 30.8613527,30.3333333 C29.8357488,28.7466667 28.9966184,27.16 28.2507246,25.3866667 C27.4115942,23.3333333 26.7589372,21.84 26.4792271,20.6266667 L26.3859903,20.3466667 Z M56.6879227,21.56 C56.5014493,22.4 56.3149758,23.3333333 56.0352657,24.08 C55.942029,24.4533333 54.2637681,28.84 53.7043478,29.96 C54.0772947,29.3066667 55.7555556,23.6133333 56.6879227,21.56 L56.6879227,21.56 Z M69.4613527,27.16 L69.4613527,27.8133333 C69.4613527,28.56 61.3497585,37.9866667 60.510628,39.2 C60.8835749,37.4266667 61.9091787,34.9066667 62.0956522,34.2533333 L69.4613527,27.16 Z M67.0371981,27.3466667 C65.3589372,28.84 63.8671498,30.24 62.6550725,31.2666667 C63.2144928,29.7733333 61.815942,30.52 61.163285,30.8 C62.6550725,29.0266667 64.9859903,27.72 67.0371981,27.3466667 L67.0371981,27.3466667 Z M30.7681159,30.8933333 C30.9545894,30.9866667 31.0478261,31.1733333 31.0478261,30.8933333 C31.7004831,31.92 35.8961353,40.32 36.8285024,42.0933333 C37.6676329,43.4933333 38.2270531,45.36 39.1594203,46.8533333 C38.6,47.88 38.9729469,47.32 38.8797101,47.5066667 C38.3202899,47.2266667 38.2270531,46.6666667 37.7608696,46.2933333 L30.7681159,30.8933333 Z M61.7227053,31.5466667 C61.9091787,32.48 59.205314,34.3466667 58.552657,34.72 C60.3241546,32.48 60.9768116,31.64 61.7227053,31.5466667 L61.7227053,31.5466667 Z M53.331401,34.2533333 C53.1449275,35.0933333 53.0516908,35.84 52.678744,36.68 C52.678744,35.84 52.9584541,35 53.331401,34.2533333 L53.331401,34.2533333 Z M46.6183575,36.68 C47.0845411,36.3066667 46.9913043,37.9866667 46.8980676,39.8533333 C46.8980676,40.32 46.7115942,39.1066667 45.7792271,40.7866667 C45.7792271,41.16 46.6183575,42 46.6183575,42.3733333 C46.4318841,43.7733333 46.2454106,44.8933333 46.2454106,44.8933333 C44.5671498,45.08 44.1942029,40.6933333 44.1942029,40.6933333 C44.7536232,39.8533333 45.0333333,39.2933333 45.7792271,38.2666667 L46.6183575,36.68 L46.6183575,36.68 Z M58.1797101,41.8133333 C57.8067633,41.72 56.3149758,41.6266667 54.636715,42.1866667 C55.6623188,40.5066667 59.3917874,36.7733333 59.9512077,36.2133333 L58.1797101,41.8133333 Z M49.3222222,42.7466667 C49.1357488,42.56 48.8560386,42 48.5763285,41.6266667 C48.9492754,40.6933333 50.2545894,36.68 50.5342995,36.0266667 L49.3222222,42.7466667 Z M62.9347826,37.52 C62.3753623,39.0133333 61.0700483,40.5066667 60.0444444,41.8133333 L62.9347826,37.52 Z M42.9821256,42.84 C43.5415459,43.12 43.2618357,43.5866667 43.6347826,43.8666667 C43.2618357,43.7733333 43.0753623,43.3066667 42.9821256,42.84 L42.9821256,42.84 Z M47.4574879,43.12 C47.7371981,43.4933333 47.5507246,43.8666667 47.0845411,44.4266667 L47.4574879,43.12 Z M56.1285024,43.4 C57.6202899,42.9333333 57.9,43.4 57.9,43.68 C57.6202899,43.7733333 53.0516908,44.8933333 52.678744,45.08 C53.1449275,44.0533333 53.8908213,44.1466667 55.0096618,43.7733333 L56.1285024,43.4 Z M42.1429952,44.1466667 C42.2362319,44.4266667 43.0753623,45.8266667 43.168599,45.8266667 C42.8888889,46.2933333 41.9565217,45.8266667 41.3038647,45.7333333 L42.1429952,44.1466667 Z M55.7555556,46.5733333 C55.289372,47.1333333 54.8231884,47.7866667 54.4502415,48.2533333 C54.0772947,47.9733333 53.6111111,47.4133333 53.2381643,47.1333333 C53.984058,46.8533333 55.5690821,46.48 55.942029,46.2933333 L55.7555556,46.5733333 Z M58.0864734,47.6933333 C58.0864734,48.16 57.9932367,51.0533333 58.0864734,51.9866667 C57.9932367,51.8933333 56.5014493,50.4 56.4082126,50.2133333 C56.2217391,50.12 58.0864734,47.6933333 58.0864734,47.6933333 L58.0864734,47.6933333 Z M51.6531401,48.44 C52.026087,48.8133333 52.2125604,49.1866667 52.678744,49.6533333 C52.4922705,49.7466667 51.6531401,49.84 51.5599034,49.84 C51.6531401,49.28 51.6531401,48.9066667 51.6531401,48.44 L51.6531401,48.44 Z M48.5763285,49.0933333 C48.5763285,49.4666667 48.3898551,50.12 48.2966184,50.4933333 C47.7371981,50.4933333 47.8304348,49.28 48.5763285,49.0933333 L48.5763285,49.0933333 Z M39.9985507,48.72 C40.2782609,49.0933333 41.0241546,50.8666667 41.5835749,51.24 C41.5835749,52.08 41.3971014,52.64 41.1173913,52.64 C40.6512077,52.5466667 39.5323671,50.4933333 39.3458937,49.9333333 L39.9985507,48.72 L39.9985507,48.72 Z M37.3879227,50.0266667 C37.2014493,50.4933333 34.3111111,54.9733333 34.3111111,54.9733333 C34.2178744,54.9733333 22.0038647,53.2 21.6309179,53.1066667 C22.0038647,52.8266667 36.642029,50.3066667 37.3879227,50.0266667 L37.3879227,50.0266667 Z M53.5178744,50.7733333 C53.1449275,51.6133333 52.678744,52.8266667 52.3057971,53.48 C52.026087,53.3866667 51.9328502,53.3866667 51.6531401,53.2933333 C51.5599034,53.2933333 51.2801932,53.1066667 51.0937198,53.1066667 C52.026087,52.1733333 52.8652174,51.4266667 53.5178744,50.7733333 L53.5178744,50.7733333 Z M38.5067633,51.0533333 C38.7864734,51.52 39.6256039,53.0133333 40.1850242,53.76 C39.4391304,54.5066667 38.7864734,55.0666667 38.5067633,55.3466667 C38.5067633,55.44 37.0149758,55.16 36.2690821,55.0666667 C36.7352657,54.5066667 38.4135266,51.52 38.5067633,51.0533333 L38.5067633,51.0533333 L38.5067633,51.0533333 Z M55.0096618,52.7333333 C55.0096618,52.7333333 56.0352657,54.4133333 56.1285024,54.6933333 C55.5690821,54.6933333 54.8231884,54.6 54.1705314,54.4133333 C54.2637681,54.4133333 55.0096618,53.1066667 55.0096618,52.7333333 L55.0096618,52.7333333 Z M41.0241546,54.9733333 C41.210628,55.3466667 41.3038647,55.5333333 41.6768116,56.28 C41.3971014,56.1866667 40.6512077,56.0933333 40.1850242,56 C40.6512077,55.5333333 40.8376812,55.3466667 41.0241546,54.9733333 L41.0241546,54.9733333 Z M42.6091787,54.2266667 C42.7024155,54.4133333 43.7280193,55.5333333 43.821256,55.5333333 C43.821256,55.72 43.7280193,56.1866667 43.7280193,56.3733333 C43.3550725,56.28 42.1429952,54.88 42.4227053,54.5066667 L42.6091787,54.2266667 L42.6091787,54.2266667 Z M59.857971,55.8133333 C60.2309179,56.4666667 60.7903382,56.9333333 61.2565217,57.5866667 C61.3497585,57.5866667 60.0444444,56.84 60.0444444,56.84 L59.857971,55.8133333 Z M53.4246377,55.9066667 C53.4246377,55.9066667 53.5178744,55.9066667 54.636715,56.6533333 C55.3826087,57.12 57.6202899,58.0533333 57.9932367,58.24 C56.4082126,58.9866667 54.636715,58.6133333 53.5178744,58.52 C51.8396135,58.3333333 52.5855072,57.2133333 53.1449275,56.28 L53.4246377,55.9066667 Z M37.2014493,57.3066667 C36.0826087,58.3333333 27.3183575,68.6933333 27.3183575,68.4133333 C27.4115942,68.04 35.2434783,57.0266667 35.1502415,57.0266667 L37.2014493,57.3066667 Z M39.1594203,57.7733333 C39.7188406,58.52 39.8120773,60.9466667 39.8120773,60.9466667 C39.3458937,61.32 36.8285024,63.56 36.2690821,64.12 C35.7096618,64.68 33.4719807,66.1733333 33.1922705,66.1733333 C33.378744,65.9866667 34.7772947,63.4666667 34.7772947,63.4666667 C37.3879227,59.4533333 39.252657,57.7733333 39.1594203,57.7733333 L39.1594203,57.7733333 Z M40.9309179,57.96 C40.8376812,57.96 42.2362319,58.24 42.515942,58.4266667 C42.1429952,58.8933333 41.5835749,59.5466667 41.210628,59.8266667 L40.9309179,57.96 Z M42.6091787,60.5733333 C42.6091787,61.4133333 41.3971014,64.2133333 41.210628,64.2133333 C41.3038647,63.4666667 41.210628,62.44 41.210628,61.88 C41.3038647,61.7866667 42.1429952,60.9466667 42.6091787,60.5733333 L42.6091787,60.5733333 Z M69.4613527,62.9066667 L69.4613527,64.12 L67.0371981,61.6933333 C67.6898551,62.0666667 69.4613527,63 69.4613527,62.9066667 L69.4613527,62.9066667 Z M42.4227053,63.3733333 C42.515942,63.84 42.7024155,64.2133333 42.0497585,64.4 C42.3294686,63.84 42.4227053,63.56 42.4227053,63.3733333 L42.4227053,63.3733333 Z" id="Shape" fill="#E30613"></path>
                        <g id="Group" transform="translate(77.386473, 48.533333)" fill="#1D1D1B">
                            <path d="M10.6289855,21.1866667 C4.28888889,21.1866667 0.74589372,16.8933333 0.74589372,11.3866667 C0.74589372,5.88 4.94154589,1.30666667 11.4681159,1.30666667 C13.426087,1.30666667 15.2908213,1.68 16.5028986,2.33333333 L16.4096618,5.97333333 C14.731401,4.94666667 13.0531401,4.66666667 11.5613527,4.66666667 C6.99275362,4.66666667 5.03478261,7.84 5.03478261,11.2 C5.03478261,14.9333333 7.36570048,17.8266667 11.1884058,17.8266667 C12.9599034,17.8266667 14.5449275,17.36 16.036715,16.52 L17.1555556,19.4133333 C15.1043478,20.72 12.77343,21.1866667 10.6289855,21.1866667 L10.6289855,21.1866667 Z" id="Shape"></path>
                            <path d="M27.1318841,10.64 C26.4792271,10.2666667 25.82657,10.1733333 25.3603865,10.1733333 C24.521256,10.1733333 23.868599,10.4533333 22.8429952,11.2933333 L22.8429952,21 L18.8338164,21 L18.8338164,7.09333333 L22.1903382,7.09333333 L22.563285,8.49333333 C23.868599,7.37333333 24.8942029,6.72 26.3859903,6.72 C27.1318841,6.72 27.8777778,6.90666667 28.5304348,7.37333333 L27.1318841,10.64 L27.1318841,10.64 Z" id="Shape"></path>
                            <path d="M32.6328502,15.12 C32.726087,16.9866667 34.4975845,18.1066667 36.3623188,18.1066667 C37.6676329,18.1066667 38.6932367,17.8266667 40.0917874,17.1733333 L41.0241546,19.6933333 C39.252657,20.9066667 37.3879227,21.28 35.7096618,21.28 C30.7681159,21.28 28.7169082,17.7333333 28.7169082,14.0933333 C28.7169082,10.1733333 31.0478261,6.72 35.2434783,6.72 C39.0661836,6.72 41.6768116,9.52 41.6768116,13.9066667 L41.6768116,15.12 L32.6328502,15.12 L32.6328502,15.12 Z M35.0570048,9.61333333 C33.4719807,9.61333333 32.5396135,11.1066667 32.5396135,12.32 L37.5743961,12.32 C37.4811594,11.0133333 36.7352657,9.61333333 35.0570048,9.61333333 L35.0570048,9.61333333 Z" id="Shape"></path>
                            <path d="M52.2125604,20.9066667 L51.5599034,19.6933333 C50.6275362,20.5333333 49.4154589,21.1866667 47.6439614,21.1866667 C45.0333333,21.1866667 42.9821256,19.4133333 42.9821256,16.7066667 C42.9821256,13.8133333 45.3130435,12.2266667 48.8560386,12.1333333 L51.1869565,12.04 L51.1869565,11.76 C51.1869565,10.2666667 49.9748792,9.70666667 48.5763285,9.70666667 C47.2710145,9.70666667 46.0589372,10.08 45.12657,10.64 L43.9144928,8.21333333 C45.7792271,7 47.6439614,6.72 49.5086957,6.72 C53.2381643,6.72 55.289372,8.21333333 55.289372,11.8533333 L55.289372,17.7333333 C55.289372,19.04 55.289372,20.16 55.5690821,20.9066667 L52.2125604,20.9066667 L52.2125604,20.9066667 Z M51.1869565,14.6533333 L49.4154589,14.7466667 C47.7371981,14.84 46.8980676,15.4 46.8980676,16.4266667 C46.8980676,17.4533333 47.6439614,18.2 49.0425121,18.2 C50.0681159,18.2 50.8140097,17.8266667 51.1869565,17.5466667 L51.1869565,14.6533333 L51.1869565,14.6533333 Z" id="Shape"></path>
                            <path d="M63.121256,21.1866667 C60.3241546,21.1866667 59.2985507,19.6933333 59.2985507,17.8266667 L59.2985507,9.89333333 L56.7811594,9.89333333 L56.7811594,7 L59.2985507,7 L59.2985507,3.73333333 L63.2144928,2.52 L63.2144928,6.90666667 L67.5966184,6.90666667 L66.4777778,9.8 L63.3077295,9.8 L63.3077295,16.4266667 C63.3077295,17.36 63.6806763,17.8266667 64.7062802,17.8266667 C65.4521739,17.8266667 66.3845411,17.5466667 66.9439614,17.2666667 L67.8763285,19.88 C66.3845411,20.9066667 64.8927536,21.1866667 63.121256,21.1866667 L63.121256,21.1866667 Z" id="Shape"></path>
                            <path d="M71.5125604,5.13333333 C70.2072464,5.13333333 69.0884058,4.10666667 69.0884058,2.8 C69.0884058,1.49333333 70.1140097,0.466666667 71.5125604,0.466666667 C72.9111111,0.466666667 73.936715,1.49333333 73.936715,2.8 C73.936715,4.10666667 72.9111111,5.13333333 71.5125604,5.13333333 L71.5125604,5.13333333 Z M69.5545894,20.9066667 L69.5545894,7.09333333 L73.5637681,7.09333333 L73.5637681,21 L69.5545894,21 L69.5545894,20.9066667 Z" id="Shape"></path>
                            <path d="M83.72657,21 L80.8362319,21 L74.9623188,7 L78.9714976,7 L82.2347826,15.8666667 L82.3280193,15.8666667 L85.5913043,7 L89.5072464,7 L83.72657,21 L83.72657,21 Z" id="Shape"></path>
                            <path d="M93.7028986,15.12 C93.7961353,16.9866667 95.5676329,18.1066667 97.4323671,18.1066667 C98.7376812,18.1066667 99.763285,17.8266667 101.161836,17.1733333 L102.094203,19.6933333 C100.322705,20.9066667 98.457971,21.28 96.7797101,21.28 C91.8381643,21.28 89.7869565,17.7333333 89.7869565,14.0933333 C89.7869565,10.1733333 92.1178744,6.72 96.3135266,6.72 C100.136232,6.72 102.74686,9.52 102.74686,13.9066667 L102.74686,15.12 L93.7028986,15.12 L93.7028986,15.12 Z M96.0338164,9.61333333 C94.4487923,9.61333333 93.5164251,11.1066667 93.5164251,12.32 L98.5512077,12.32 C98.5512077,11.0133333 97.805314,9.61333333 96.0338164,9.61333333 L96.0338164,9.61333333 Z" id="Shape"></path>
                            <path d="M109.180193,21.1866667 C106.756039,21.1866667 104.891304,20.5333333 103.679227,19.7866667 L104.984541,16.8933333 C106.103382,17.7333333 107.501932,18.2 108.900483,18.2 C110.205797,18.2 111.044928,17.7333333 111.044928,16.8933333 C111.044928,14.6533333 104.611594,15.5866667 104.611594,10.92 C104.611594,8.4 106.662802,6.62666667 110.11256,6.62666667 C111.697585,6.62666667 113.096135,6.90666667 114.308213,7.37333333 L114.308213,10.64 C113.096135,10.1733333 111.697585,9.70666667 110.205797,9.70666667 C109.086957,9.70666667 108.4343,9.98666667 108.4343,10.7333333 C108.4343,12.6 114.96087,11.9466667 114.96087,16.8 C114.96087,20.0666667 112.163768,21.1866667 109.180193,21.1866667 L109.180193,21.1866667 Z" id="Shape"></path>
                        </g>
                        <g id="Group" transform="translate(78.318841, 17.733333)" fill="#1D1D1B">
                            <path d="M1.30531401,22.96 C0.839130435,22.7733333 0.839130435,22.5866667 0.839130435,21.84 C0.839130435,20.3466667 0.93236715,19.1333333 1.02560386,18.6666667 C1.02560386,18.2933333 1.11884058,18.2 1.30531401,18.2 C1.49178744,18.2 1.49178744,18.2933333 1.49178744,18.5733333 C1.49178744,18.8533333 1.49178744,19.2266667 1.58502415,19.6933333 C2.05120773,21.9333333 4.00917874,22.7733333 6.06038647,22.7733333 C8.95072464,22.7733333 10.3492754,20.72 10.3492754,18.76 C10.3492754,16.7066667 9.51014493,15.4933333 6.89951691,13.3466667 L5.50096618,12.1333333 C2.33091787,9.52 1.58502415,7.65333333 1.58502415,5.6 C1.58502415,2.42666667 4.00917874,0.186666667 7.83188406,0.186666667 C9.04396135,0.186666667 9.88309179,0.28 10.6289855,0.466666667 C11.1884058,0.56 11.4681159,0.653333333 11.6545894,0.653333333 C11.9342995,0.653333333 11.9342995,0.746666667 11.9342995,0.84 C11.9342995,1.02666667 11.8410628,1.96 11.8410628,4.01333333 C11.8410628,4.48 11.7478261,4.66666667 11.6545894,4.66666667 C11.4681159,4.66666667 11.4681159,4.48 11.3748792,4.29333333 C11.3748792,3.92 11.1884058,3.08 11.0019324,2.8 C10.8154589,2.42666667 9.9763285,1.21333333 7.27246377,1.21333333 C5.22125604,1.21333333 3.54299517,2.52 3.54299517,4.66666667 C3.54299517,6.34666667 4.28888889,7.46666667 7.17922705,9.70666667 L8.01835749,10.36 C11.5613527,13.16 12.4004831,15.0266667 12.4004831,17.4533333 C12.4004831,18.6666667 11.9342995,21 9.88309179,22.4 C8.57777778,23.3333333 6.99275362,23.7066667 5.31449275,23.7066667 C3.91594203,23.7066667 2.5173913,23.52 1.30531401,22.96 L1.30531401,22.96 Z" id="Shape"></path>
                            <path d="M27.1318841,3.64 C33.0990338,3.64 37.5743961,7.28 37.5743961,13.2533333 C37.5743961,18.9466667 33.378744,23.7066667 26.9454106,23.7066667 C19.6729469,23.7066667 16.5961353,18.2933333 16.5961353,13.6266667 C16.689372,9.52 19.8594203,3.64 27.1318841,3.64 L27.1318841,3.64 Z M27.7845411,22.5866667 C30.1154589,22.5866667 34.9637681,21.28 34.9637681,13.9066667 C34.9637681,7.74666667 31.2342995,4.57333333 27.0386473,4.57333333 C22.6565217,4.57333333 19.3932367,7.37333333 19.3932367,12.88 C19.3932367,18.8533333 23.0294686,22.5866667 27.7845411,22.5866667 L27.7845411,22.5866667 Z" id="Shape"></path>
                            <path d="M45.5927536,15.96 C45.5927536,19.6933333 45.6859903,21.28 46.1521739,21.7466667 C46.6183575,22.2133333 47.5507246,22.3066667 49.6951691,22.3066667 C51.0937198,22.3066667 52.2125604,22.3066667 52.8652174,21.56 C53.2381643,21.1866667 53.4246377,20.6266667 53.5178744,20.16 C53.5178744,19.9733333 53.6111111,19.7866667 53.7975845,19.7866667 C53.8908213,19.7866667 53.984058,19.88 53.984058,20.16 C53.984058,20.44 53.7975845,21.9333333 53.6111111,22.68 C53.4246377,23.24 53.331401,23.3333333 51.9328502,23.3333333 C50.0681159,23.3333333 48.5763285,23.3333333 47.3642512,23.24 C46.1521739,23.24 45.2198068,23.1466667 44.473913,23.1466667 L43.3550725,23.1466667 C42.7956522,23.1466667 42.2362319,23.24 41.863285,23.24 C41.5835749,23.24 41.3971014,23.1466667 41.3971014,23.0533333 C41.3971014,22.96 41.4903382,22.8666667 41.5835749,22.8666667 C41.863285,22.8666667 42.1429952,22.7733333 42.4227053,22.7733333 C42.8888889,22.68 42.9821256,22.2133333 43.0753623,21.4666667 C43.2618357,20.44 43.2618357,18.3866667 43.2618357,15.96 L43.2618357,11.48 C43.2618357,7.46666667 43.2618357,6.81333333 43.168599,5.97333333 C43.0753623,5.13333333 42.9821256,4.66666667 42.0497585,4.57333333 C41.863285,4.57333333 41.3971014,4.48 41.1173913,4.48 C41.0241546,4.48 40.9309179,4.38666667 40.9309179,4.29333333 C40.9309179,4.10666667 41.0241546,4.10666667 41.3971014,4.10666667 C42.6091787,4.10666667 44.2874396,4.2 44.3806763,4.2 C44.473913,4.2 46.5251208,4.10666667 47.2710145,4.10666667 C47.5507246,4.10666667 47.7371981,4.2 47.7371981,4.29333333 C47.7371981,4.38666667 47.6439614,4.48 47.5507246,4.48 C47.3642512,4.48 46.9913043,4.48 46.7115942,4.57333333 C45.9657005,4.76 45.7792271,5.13333333 45.6859903,5.97333333 L45.6859903,11.48 L45.6859903,15.96 L45.5927536,15.96 Z" id="Shape"></path>
                            <path d="M59.205314,11.3866667 C59.205314,7.37333333 59.205314,6.72 59.1120773,5.88 C59.0188406,5.04 58.9256039,4.57333333 57.9932367,4.48 C57.8067633,4.48 57.3405797,4.38666667 57.0608696,4.38666667 C56.9676329,4.38666667 56.8743961,4.29333333 56.8743961,4.2 C56.8743961,4.01333333 56.9676329,4.01333333 57.247343,4.01333333 C58.4594203,4.01333333 60.1376812,4.10666667 60.3241546,4.10666667 L66.6642512,4.10666667 C67.1304348,4.10666667 67.6898551,4.01333333 67.8763285,3.92 C67.9695652,3.92 68.1560386,3.82666667 68.2492754,3.82666667 C68.3425121,3.82666667 68.3425121,3.92 68.3425121,4.10666667 C68.3425121,4.29333333 68.1560386,4.57333333 68.1560386,5.32 C68.1560386,5.6 68.0628019,6.72 67.9695652,7 C67.9695652,7.09333333 67.8763285,7.28 67.6898551,7.28 C67.5033816,7.28 67.5033816,7.18666667 67.5033816,6.90666667 C67.5033816,6.72 67.5033816,6.34666667 67.3169082,5.97333333 C67.1304348,5.50666667 66.8507246,5.41333333 65.4521739,5.22666667 C64.9859903,5.13333333 61.9091787,5.13333333 61.6294686,5.13333333 C61.5362319,5.13333333 61.4429952,5.22666667 61.4429952,5.41333333 L61.4429952,12.32 C61.4429952,12.5066667 61.4429952,12.6 61.6294686,12.6 C62.0024155,12.6 65.4521739,12.6 66.0115942,12.5066667 C66.6642512,12.4133333 67.0371981,12.4133333 67.3169082,12.1333333 C67.5033816,11.9466667 67.5966184,11.76 67.6898551,11.76 C67.7830918,11.76 67.8763285,11.8533333 67.8763285,11.9466667 C67.8763285,12.1333333 67.6898551,12.5066667 67.6898551,13.3466667 C67.5966184,13.8133333 67.5966184,14.84 67.5966184,15.0266667 C67.5966184,15.2133333 67.5033816,15.4933333 67.3169082,15.4933333 C67.2236715,15.4933333 67.1304348,15.4 67.1304348,15.2133333 C67.1304348,14.9333333 67.1304348,14.7466667 67.0371981,14.3733333 C66.9439614,14 66.6642512,13.72 65.7318841,13.6266667 C64.9859903,13.5333333 62.1888889,13.5333333 61.7227053,13.5333333 C61.5362319,13.5333333 61.5362319,13.6266667 61.5362319,13.72 L61.5362319,15.8666667 L61.5362319,20.2533333 C61.6294686,21.9333333 62.0956522,22.3066667 64.7062802,22.3066667 C65.3589372,22.3066667 66.6642512,22.3066667 67.3169082,22.0266667 C67.9695652,21.7466667 68.3425121,21.28 68.5289855,20.2533333 C68.6222222,19.9733333 68.6222222,19.88 68.8086957,19.88 C68.9951691,19.88 68.9951691,20.0666667 68.9951691,20.2533333 C68.9951691,20.44 68.8086957,22.2133333 68.6222222,22.68 C68.4357488,23.3333333 68.1560386,23.3333333 67.1304348,23.3333333 C65.1724638,23.3333333 63.5874396,23.24 62.5618357,23.24 C61.4429952,23.1466667 60.7903382,23.1466667 60.3241546,23.1466667 L59.205314,23.1466667 C58.6458937,23.1466667 58.0864734,23.24 57.7135266,23.24 C57.4338164,23.24 57.247343,23.1466667 57.247343,23.0533333 C57.247343,22.96 57.3405797,22.8666667 57.4338164,22.8666667 C57.7135266,22.8666667 57.9932367,22.7733333 58.2729469,22.7733333 C58.7391304,22.68 58.8323671,22.2133333 58.9256039,21.4666667 C59.1120773,20.44 59.1120773,18.3866667 59.1120773,15.96 L59.1120773,11.3866667 L59.205314,11.3866667 Z" id="Shape"></path>
                            <path d="M76.9202899,19.7866667 C77.0135266,21.9333333 77.2,22.4933333 77.9458937,22.68 C78.4120773,22.7733333 79.0647343,22.8666667 79.2512077,22.8666667 C79.3444444,22.8666667 79.4376812,22.96 79.4376812,23.0533333 C79.4376812,23.24 79.2512077,23.24 78.9714976,23.24 C77.4797101,23.24 76.4541063,23.1466667 76.1743961,23.1466667 C75.894686,23.1466667 74.7758454,23.24 73.6570048,23.24 C73.3772947,23.24 73.1908213,23.24 73.1908213,23.0533333 C73.1908213,22.96 73.284058,22.8666667 73.3772947,22.8666667 C73.5637681,22.8666667 74.0299517,22.8666667 74.4961353,22.68 C75.1487923,22.4933333 75.242029,21.84 75.242029,19.5066667 L75.242029,4.94666667 C75.242029,3.92 75.4285024,3.64 75.6149758,3.64 C75.894686,3.64 76.3608696,4.10666667 76.6405797,4.38666667 C77.1067633,4.85333333 80.9294686,8.86666667 85.0318841,13.0666667 C87.6425121,15.7733333 90.4396135,18.8533333 91.278744,19.6933333 L90.9990338,6.90666667 C90.9990338,5.22666667 90.8125604,4.66666667 89.97343,4.57333333 C89.5072464,4.48 88.8545894,4.48 88.6681159,4.48 C88.4816425,4.48 88.4816425,4.29333333 88.4816425,4.2 C88.4816425,4.01333333 88.6681159,4.01333333 88.9478261,4.01333333 C90.1599034,4.01333333 91.3719807,4.10666667 91.7449275,4.10666667 C92.0246377,4.10666667 92.9570048,4.01333333 93.9826087,4.01333333 C94.2623188,4.01333333 94.4487923,4.01333333 94.4487923,4.2 C94.4487923,4.29333333 94.3555556,4.48 94.1690821,4.48 C94.0758454,4.48 93.7961353,4.48 93.5164251,4.57333333 C92.6772947,4.76 92.584058,5.22666667 92.584058,6.81333333 L92.4908213,21.7466667 C92.4908213,23.4266667 92.4908213,23.6133333 92.3043478,23.6133333 C92.0246377,23.6133333 91.7449275,23.4266667 90.2531401,22.0266667 C89.97343,21.7466667 86.1507246,18.0133333 83.3536232,15.12 C80.2768116,11.9466667 77.2932367,8.77333333 76.547343,7.84 L76.9202899,19.7866667 L76.9202899,19.7866667 Z" id="Shape"></path>
                            <path d="M106.569565,15.8666667 C106.569565,18.2933333 106.569565,20.3466667 106.662802,21.3733333 C106.756039,22.12 106.849275,22.5866667 107.688406,22.68 C108.061353,22.7733333 108.620773,22.7733333 108.900483,22.7733333 C109.086957,22.7733333 109.086957,22.8666667 109.086957,22.96 C109.086957,23.0533333 108.99372,23.1466667 108.71401,23.1466667 C107.315459,23.1466667 105.543961,23.0533333 105.450725,23.0533333 C105.357488,23.0533333 103.492754,23.1466667 102.74686,23.1466667 C102.46715,23.1466667 102.280676,23.0533333 102.280676,22.96 C102.280676,22.8666667 102.373913,22.7733333 102.46715,22.7733333 C102.74686,22.7733333 103.02657,22.68 103.213043,22.68 C103.772464,22.5866667 103.8657,22.0266667 103.958937,21.28 C104.052174,20.2533333 104.052174,18.2 104.052174,15.7733333 L104.052174,5.13333333 L100.229469,5.22666667 C98.5512077,5.22666667 97.8985507,5.41333333 97.5256039,6.06666667 C97.2458937,6.53333333 97.152657,6.72 97.0594203,6.90666667 C96.9661836,7.09333333 96.8729469,7.18666667 96.7797101,7.18666667 C96.6864734,7.18666667 96.5932367,7.09333333 96.5932367,7 C96.5932367,6.72 97.0594203,4.48 97.152657,4.2 C97.152657,4.01333333 97.3391304,3.73333333 97.4323671,3.73333333 C97.6188406,3.73333333 97.8985507,3.92 98.6444444,4.01333333 C99.3903382,4.10666667 100.415942,4.10666667 100.695652,4.10666667 L110.671981,4.10666667 C111.511111,4.10666667 112.163768,4.01333333 112.536715,4.01333333 C112.909662,3.92 113.189372,3.92 113.282609,3.92 C113.375845,3.92 113.375845,4.10666667 113.375845,4.2 C113.375845,4.94666667 113.282609,6.81333333 113.282609,7.09333333 C113.282609,7.28 113.189372,7.46666667 113.002899,7.46666667 C112.909662,7.46666667 112.816425,7.37333333 112.816425,7 L112.816425,6.72 C112.723188,5.97333333 112.163768,5.32 109.646377,5.32 L106.383092,5.22666667 L106.383092,15.8666667 L106.569565,15.8666667 Z" id="Shape"></path>
                        </g>
                    </g>
                </g>
            </g>
        </g>
    </g>
</svg>